<?xml version="1.0" encoding="UTF-8"?> <svg xmlns="http://www.w3.org/2000/svg" height="512px" viewBox="0 0 512 512" width="512px"> <g> <path d="m512 246v20c0 33.085938-26.914062 60-60 60h-10.074219c-2.648437 0-5.050781 1.667969-6.117187 4.25l-.125.308594c-4.203125 10.214844-15.890625 15.089844-26.105469 10.882812-10.214844-4.203125-15.089844-15.890625-10.886719-26.105468l.136719-.328126c7.28125-17.628906 24.191406-29.007812 43.097656-29.007812h10.074219c11.027344 0 20-8.972656 20-20v-20c0-11.027344-8.972656-20-20-20h-10.074219c-18.90625 0-35.816406-11.378906-43.089843-28.984375l-.121094-.292969c-7.308594-17.601562-3.398438-37.613281 9.96875-50.980468l7.125-7.121094c7.796875-7.796875 7.796875-20.484375 0-28.285156l-14.144532-14.140626c-3.777343-3.777343-8.800781-5.859374-14.140624-5.859374-5.34375 0-10.367188 2.082031-14.140626 5.859374l-7.125 7.121094c-13.367187 13.367188-33.378906 17.28125-50.980468 9.96875l-.296875-.125c-17.601563-7.269531-28.980469-24.179687-28.980469-43.085937v-10.074219c0-11.027344-8.972656-20-20-20h-20c-11.027344 0-20 8.972656-20 20v10.074219c0 18.90625-11.378906 35.816406-28.984375 43.085937l-.253906.105469c-17.644531 7.328125-37.652344 3.417969-51.019531-9.949219l-7.125-7.125c-3.773438-3.777344-8.796876-5.855468-14.140626-5.855468-5.339843 0-10.363281 2.078124-14.140624 5.855468l-14.144532 14.144532c-7.796875 7.796874-7.796875 20.484374 0 28.285156l7.125 7.121094c13.367188 13.367187 17.277344 33.378906 9.964844 50.984374l-.121094.296876c-7.269531 17.597656-24.179687 28.976562-43.085937 28.976562h-10.074219c-11.027344 0-20 8.972656-20 20v20c0 11.027344 8.972656 20 20 20h10.074219c18.902343 0 35.816406 11.378906 43.085937 28.984375l.148438.351563c7.285156 17.542968 3.375 37.554687-9.992188 50.921874l-7.125 7.121094c-3.777344 3.777344-5.855468 8.800782-5.855468 14.144532 0 5.339843 2.078124 10.363281 5.855468 14.140624l14.144532 14.144532c7.796874 7.796875 20.484374 7.800781 28.285156 0l7.121094-7.125c13.359374-13.355469 33.355468-17.273438 50.953124-9.976563l.257813.105469c17.671875 7.296875 29.046875 24.210938 29.046875 43.113281v10.074219c0 11.027344 8.972656 20 20 20h20c11.027344 0 20-8.972656 20-20v-10.074219c0-18.902343 11.375-35.816406 28.980469-43.085937l.324219-.136719c17.597656-7.292969 37.59375-3.378906 50.953124 9.980469l7.121094 7.121094c7.800782 7.800781 20.488282 7.800781 28.285156 0l14.140626-14.140626c7.8125-7.8125 20.476562-7.8125 28.285156 0 7.8125 7.808594 7.8125 20.472657 0 28.28125l-14.140625 14.144532c-23.394531 23.394531-61.460938 23.394531-84.851563 0l-7.125-7.121094c-1.871094-1.875-4.757812-2.390625-7.355468-1.3125l-.429688.179688c-2.519531 1.039062-4.1875 3.441406-4.1875 6.089843v10.074219c0 33.085938-26.914062 60-60 60h-20c-33.085938 0-60-26.914062-60-60v-10.074219c0-2.648437-1.667969-5.050781-4.253906-6.117187l-.363282-.152344c-2.597656-1.078125-5.484374-.5625-7.355468 1.3125l-7.125 7.125c-23.390625 23.390625-61.457032 23.390625-84.851563 0l-14.144531-14.144531c-11.332031-11.332031-17.570312-26.398438-17.570312-42.425781 0-16.027344 6.238281-31.09375 17.574218-42.425782l7.121094-7.125c1.871094-1.871094 2.386719-4.757812 1.3125-7.351562l-.164062-.390625c-1.054688-2.5625-3.457032-4.230469-6.105469-4.230469h-10.074219c-33.085938 0-60-26.914062-60-60v-20c0-33.085938 26.914062-60 60-60h10.074219c2.648437 0 5.050781-1.667969 6.117187-4.25l.148438-.363281c1.082031-2.597657.566406-5.484375-1.308594-7.359375l-7.121094-7.121094c-23.394531-23.394531-23.394531-61.460938 0-84.855469l14.140625-14.140625c11.335938-11.332031 26.402344-17.574218 42.425781-17.574218 16.027344 0 31.09375 6.242187 42.429688 17.574218l7.121094 7.121094c1.875 1.875 4.761718 2.390625 7.355468 1.3125l.359376-.152344c2.589843-1.066406 4.257812-3.46875 4.257812-6.117187v-10.074219c0-33.085938 26.917969-60 60-60h20c33.085938 0 60 26.914062 60 60v10.074219c0 2.648437 1.667969 5.050781 4.25 6.117187l.40625.167969c2.558594 1.0625 5.445312.546875 7.316406-1.328125l7.125-7.121094c11.332032-11.335937 26.398438-17.574218 42.425782-17.574218 16.023437 0 31.09375 6.238281 42.425781 17.574218l14.140625 14.140625c23.394531 23.394531 23.394531 61.460938 0 84.851563l-7.121094 7.125c-1.875 1.871094-2.390625 4.757812-1.3125 7.355468l.148438.359376c1.070312 2.585937 3.472656 4.257812 6.121093 4.257812h10.074219c33.085938 0 60 26.914062 60 60zm-306.871094 1.101562c-7.617187-10.417968-12.128906-23.238281-12.128906-37.101562 0-34.738281 28.261719-63 63-63s63 28.261719 63 63c0 13.863281-4.511719 26.683594-12.128906 37.101562 22.75 13.742188 39.75 36.519532 45.425781 63.851563 2.050781 9.867187-.417969 20.007813-6.769531 27.816406-6.324219 7.773438-15.695313 12.230469-25.714844 12.230469h-127.625c-10.019531 0-19.390625-4.457031-25.714844-12.230469-6.351562-7.808593-8.820312-17.945312-6.769531-27.816406 5.675781-27.332031 22.675781-50.109375 45.425781-63.851563zm27.871094-37.101562c0 12.683594 10.316406 23 23 23s23-10.316406 23-23-10.316406-23-23-23-23 10.316406-23 23zm-31.824219 101h109.648438c-8.234375-22.441406-29.882813-38-54.300781-38h-1.046876c-24.417968 0-46.066406 15.558594-54.300781 38zm0 0" data-original="#000000" class="active-path" data-old_color="#000000" fill="#0026FF"></path> </g> </svg> 