<?xml version="1.0" encoding="UTF-8"?> <svg xmlns="http://www.w3.org/2000/svg" xmlns:xlink="http://www.w3.org/1999/xlink" id="Capa_1" x="0px" y="0px" viewBox="0 0 512 512" style="enable-background:new 0 0 512 512;" xml:space="preserve" width="512px" height="512px"><g><g> <g> <path d="M511.918,226.455c-0.436-4.146-2.568-7.927-5.891-10.444l-40.557-30.721l14.756-48.69 c1.209-3.99,0.713-8.302-1.371-11.912c-2.085-3.61-5.571-6.196-9.63-7.144l-49.548-11.569l-6.325-50.482 c-0.519-4.136-2.726-7.874-6.098-10.324c-3.372-2.451-7.607-3.394-11.702-2.61l-49.968,9.584L319.27,8.598 c-2.156-3.567-5.693-6.084-9.77-6.95c-4.078-0.867-8.333-0.007-11.752,2.375L256,33.103L214.251,4.023 c-3.421-2.382-7.675-3.242-11.753-2.375s-7.614,3.382-9.77,6.951l-26.311,43.546l-49.968-9.584 c-4.093-0.783-8.33,0.159-11.703,2.61c-3.372,2.451-5.58,6.187-6.098,10.324l-6.325,50.482l-49.548,11.569 c-4.06,0.948-7.545,3.534-9.63,7.144c-2.085,3.611-2.581,7.922-1.372,11.911l14.754,48.691L5.974,216.012 c-3.323,2.517-5.455,6.297-5.891,10.443c-0.435,4.146,0.865,8.287,3.592,11.44l33.281,38.481l-24.554,44.56 c-2.011,3.651-2.422,7.972-1.134,11.937c1.288,3.963,4.16,7.218,7.934,8.989l46.056,21.616l-4.309,50.696 c-0.353,4.154,1.029,8.269,3.819,11.367c2.789,3.098,6.737,4.902,10.904,4.986l50.87,1.014l16.681,48.064 c1.367,3.938,4.303,7.136,8.111,8.831c3.809,1.695,8.149,1.738,11.99,0.12l46.885-19.763l34.791,37.124 c2.85,3.042,6.833,4.768,11.002,4.768s8.151-1.726,11.002-4.768l34.791-37.124l46.882,19.763c3.841,1.617,8.181,1.575,11.99-0.12 c3.809-1.696,6.745-4.891,8.111-8.83l16.684-48.065l50.867-1.014c4.169-0.083,8.116-1.888,10.905-4.986 c2.789-3.098,4.172-7.212,3.819-11.367l-4.309-50.696l46.059-21.616c3.773-1.771,6.646-5.026,7.934-8.99 c1.288-3.963,0.878-8.285-1.135-11.937l-24.557-44.559l33.284-38.481C511.053,234.742,512.353,230.601,511.918,226.455z M443.562,281.733l21.86,39.667l-41.001,19.242c-5.713,2.682-9.152,8.639-8.617,14.927l3.836,45.128l-45.282,0.903 c-6.31,0.126-11.874,4.168-13.944,10.13l-14.852,42.788l-41.734-17.594c-5.816-2.452-12.543-1.022-16.858,3.583L256,473.553 l-30.97-33.047c-2.911-3.107-6.92-4.769-11.006-4.769c-1.97,0-3.96,0.387-5.853,1.185l-41.736,17.594l-14.85-42.787 c-2.07-5.963-7.633-10.006-13.944-10.131l-45.285-0.903l3.836-45.128c0.535-6.288-2.904-12.245-8.617-14.927l-40.998-19.243 l21.858-39.668c3.046-5.528,2.326-12.367-1.801-17.141l-29.627-34.255l36.102-27.347c5.031-3.811,7.156-10.351,5.326-16.392 l-13.134-43.345l44.107-10.298c6.146-1.435,10.747-6.547,11.533-12.809l5.63-44.938l44.481,8.531 c6.198,1.19,12.481-1.609,15.745-7.011l23.422-38.763l37.165,25.886c5.179,3.607,12.057,3.607,17.235,0l37.163-25.886 l23.424,38.764c3.263,5.401,9.543,8.2,15.745,7.01l44.481-8.531l5.63,44.938c0.785,6.262,5.387,11.374,11.533,12.809 l44.107,10.298l-13.136,43.344c-1.831,6.04,0.294,12.582,5.325,16.393l36.104,27.347l-29.629,34.255 C441.235,269.364,440.515,276.205,443.562,281.733z" data-original="#000000" class="active-path" data-old_color="#000000" fill="#0026FF"></path> </g> </g><g> <g> <path d="M256,111.722c-79.556,0-144.278,64.723-144.278,144.277S176.446,400.277,256,400.277S400.278,335.554,400.278,256 S335.555,111.722,256,111.722z M256,370.122c-62.927,0-114.122-51.195-114.122-114.122S193.073,141.878,256,141.878 S370.122,193.073,370.122,256S318.927,370.122,256,370.122z" data-original="#000000" class="active-path" data-old_color="#000000" fill="#0026FF"></path> </g> </g><g> <g> <path d="M315.114,213.039c-5.89-5.889-15.437-5.889-21.325,0l-53.938,53.937l-21.639-21.638c-5.888-5.889-15.435-5.887-21.323,0 c-5.887,5.888-5.887,15.435,0.001,21.323l32.301,32.3c2.944,2.944,6.803,4.416,10.661,4.416c3.859,0,7.718-1.473,10.661-4.416 l64.6-64.599C321.001,228.475,321.001,218.927,315.114,213.039z" data-original="#000000" class="active-path" data-old_color="#000000" fill="#0026FF"></path> </g> </g></g> </svg> 