<?xml version="1.0" encoding="UTF-8"?> <svg xmlns="http://www.w3.org/2000/svg" id="_x31__x2C_5" height="512px" viewBox="0 0 24 24" width="512px"> <g> <path d="m7.75 7c-.192 0-.384-.073-.53-.22-.293-.293-.293-.768 0-1.061l3-3c.228-.229.577-.284.865-.141l1.517.758 2.938-2.938c.293-.293.768-.293 1.061 0s.293.768 0 1.061l-3.32 3.32c-.229.229-.577.284-.865.141l-1.517-.758-2.619 2.618c-.146.147-.338.22-.53.22z" data-original="#000000" class="active-path" data-old_color="#000000" fill="#0026FF"></path> <path d="m16.25 4c-.414 0-.75-.336-.75-.75v-1.75h-1.75c-.414 0-.75-.336-.75-.75s.336-.75.75-.75h2.5c.414 0 .75.336.75.75v2.5c0 .414-.336.75-.75.75z" data-original="#000000" class="active-path" data-old_color="#000000" fill="#0026FF"></path> <path d="m8.75 24c-.141 0-.281-.04-.403-.118-.216-.138-.347-.376-.347-.632v-10.465l-7.811-8.787c-.196-.221-.244-.536-.124-.805.122-.27.39-.443.685-.443h5.76c.414 0 .75.336.75.75s-.336.75-.75.75h-4.09l6.891 7.752c.122.137.189.314.189.498v9.576l1.114-.517c.374-.173.821-.012.996.365.174.376.011.822-.365.996l-2.18 1.01c-.1.047-.208.07-.315.07z" data-original="#000000" class="active-path" data-old_color="#000000" fill="#0026FF"></path> <path d="m17.69 10.51c-.178 0-.355-.063-.498-.189-.31-.275-.338-.749-.063-1.059l4.451-5.012h-2.33c-.414 0-.75-.336-.75-.75s.336-.75.75-.75h4c.295 0 .563.173.685.442.12.27.072.585-.124.806l-5.56 6.26c-.148.167-.354.252-.561.252z" data-original="#000000" class="active-path" data-old_color="#000000" fill="#0026FF"></path> <path d="m18 22c-.414 0-.75-.336-.75-.75v-.929c0-.414.336-.75.75-.75s.75.336.75.75v.929c0 .414-.336.75-.75.75z" data-original="#000000" class="active-path" data-old_color="#000000" fill="#0026FF"></path> <path d="m18.208 21.071h-1.458c-.414 0-.75-.336-.75-.75s.336-.75.75-.75h1.458c.138 0 .292-.168.292-.411s-.154-.411-.292-.411h-.416c-.988 0-1.792-.857-1.792-1.911s.804-1.911 1.792-1.911h1.458c.414 0 .75.336.75.75s-.336.75-.75.75h-1.458c-.138 0-.292.168-.292.411s.154.411.292.411h.416c.988 0 1.792.857 1.792 1.911s-.804 1.911-1.792 1.911z" data-original="#000000" class="active-path" data-old_color="#000000" fill="#0026FF"></path> <path d="m18 16.429c-.414 0-.75-.336-.75-.75v-.929c0-.414.336-.75.75-.75s.75.336.75.75v.929c0 .414-.336.75-.75.75z" data-original="#000000" class="active-path" data-old_color="#000000" fill="#0026FF"></path> <path d="m18 24c-3.309 0-6-2.691-6-6s2.691-6 6-6 6 2.691 6 6-2.691 6-6 6zm0-10.5c-2.481 0-4.5 2.019-4.5 4.5s2.019 4.5 4.5 4.5 4.5-2.019 4.5-4.5-2.019-4.5-4.5-4.5z" data-original="#000000" class="active-path" data-old_color="#000000" fill="#0026FF"></path> </g> </svg> 