<?xml version="1.0" encoding="UTF-8"?> <svg xmlns="http://www.w3.org/2000/svg" id="Layer_1" height="512px" viewBox="0 0 512.036 512.036" width="512px"> <g> <g> <path d="m453.104 62.996c-5.807-13.536-16.36-24.298-29.716-30.302-96.98-43.592-237.76-43.593-334.743.001-13.354 6.003-23.907 16.764-29.713 30.299-44.012 102.585-44.012 251.5.001 354.086 5.806 13.533 16.357 24.293 29.71 30.296 29.423 13.225 63.017 22.597 99.868 27.889 12.435 21.962 38.177 36.771 67.507 36.771 29.331 0 55.072-14.81 67.507-36.772 36.85-5.291 70.444-14.663 99.868-27.888 13.354-6.004 23.905-16.763 29.71-30.296 44.013-102.584 44.013-251.498.001-354.084zm-18.381 346.199c-3.824 8.915-10.761 15.996-19.53 19.938-25.012 11.243-53.339 19.549-84.348 24.756.026-.184.063-.364.087-.547.722-5.475-3.132-10.499-8.607-11.221-5.474-.727-10.499 3.132-11.221 8.607-3.104 23.549-26.787 41.307-55.086 41.307s-51.981-17.758-55.086-41.307c-.722-5.476-5.75-9.334-11.221-8.607-5.476.722-9.329 5.746-8.607 11.221.024.184.061.364.087.547-31.008-5.208-59.336-13.513-84.347-24.756-8.77-3.942-15.706-11.023-19.531-19.938-20.181-47.038-31.294-107.112-31.295-169.158 0-62.046 11.114-122.12 31.294-169.158 3.826-8.917 10.763-15.999 19.534-19.941 44.331-19.927 100.858-30.901 159.171-30.901s114.841 10.974 159.171 30.9c8.772 3.943 15.711 11.026 19.536 19.944 20.181 47.038 31.294 107.112 31.294 169.157 0 62.046-11.114 122.12-31.295 169.157z" data-original="#000000" class="active-path" data-old_color="#000000" fill="#0026FF"></path> <path d="m181.018 236.036c0 5.522 4.477 10 10 10s10-4.478 10-10c0-27.57-20.187-50-45-50s-45 22.43-45 50c0 5.522 4.477 10 10 10s10-4.478 10-10c0-16.542 11.215-30 25-30s25 13.458 25 30z" data-original="#000000" class="active-path" data-old_color="#000000" fill="#0026FF"></path> <path d="m356.018 186.036c-24.813 0-45 22.43-45 50 0 5.522 4.478 10 10 10s10-4.478 10-10c0-16.542 11.215-30 25-30s25 13.458 25 30c0 5.522 4.478 10 10 10s10-4.478 10-10c0-27.57-20.186-50-45-50z" data-original="#000000" class="active-path" data-old_color="#000000" fill="#0026FF"></path> <path d="m114.968 160.497c9.6-19.259 40.96-29.348 68.482-22.036 5.342 1.425 10.814-1.759 12.233-7.096 1.418-5.338-1.759-10.814-7.096-12.232-37.309-9.917-77.507 4.335-91.518 32.442-2.464 4.942-.454 10.947 4.489 13.411 1.433.714 2.954 1.052 4.453 1.052 3.672 0 7.207-2.03 8.957-5.541z" data-original="#000000" class="active-path" data-old_color="#000000" fill="#0026FF"></path> <path d="m325.45 119.133c-5.338 1.418-8.515 6.895-7.096 12.232 1.418 5.339 6.899 8.519 12.232 7.096 27.524-7.314 58.883 2.779 68.481 22.036 1.75 3.511 5.285 5.541 8.958 5.541 1.499 0 3.021-.338 4.453-1.052 4.943-2.464 6.952-8.469 4.489-13.411-14.01-28.107-54.211-42.36-91.517-32.442z" data-original="#000000" class="active-path" data-old_color="#000000" fill="#0026FF"></path> <path d="m354.697 324.004c3.634-8.384 6.117-17.362 7.25-26.771.66-5.483-3.25-10.464-8.732-11.125-5.482-.666-10.464 3.25-11.125 8.732-4.889 40.589-41.461 71.196-85.071 71.196s-80.184-30.607-85.072-71.195c-.66-5.484-5.635-9.391-11.124-8.733-5.483.661-9.393 5.642-8.732 11.124 6.097 50.627 51.207 88.805 104.928 88.805 5.79 0 11.479-.446 17.031-1.301.132.149.258.301.401.443l26.213 26.213c9.748 9.747 22.552 14.621 35.355 14.621s25.607-4.874 35.355-14.621c19.495-19.495 19.495-51.216 0-70.711zm2.534 73.245c-11.697 11.697-30.729 11.697-42.426 0l-18.415-18.415c6.648-2.534 12.97-5.691 18.882-9.402l13.675 13.675c1.953 1.952 4.512 2.929 7.071 2.929s5.118-.977 7.071-2.929c3.905-3.905 3.905-10.237 0-14.143l-11.837-11.836c4.897-4.588 9.331-9.63 13.217-15.066l12.761 12.761c11.698 11.696 11.698 30.729.001 42.426z" data-original="#000000" class="active-path" data-old_color="#000000" fill="#0026FF"></path> </g> </g> </svg> 