<?xml version="1.0" encoding="UTF-8"?> <svg xmlns="http://www.w3.org/2000/svg" xmlns:xlink="http://www.w3.org/1999/xlink" id="Capa_1" x="0px" y="0px" viewBox="0 0 512 512" style="enable-background:new 0 0 512 512;" xml:space="preserve" width="512px" height="512px"><g><g> <g> <g> <path d="M480,448V181.333c0-17.673-14.327-32-32-32h-92.16c-52.722-55.14-140.161-57.101-195.301-4.379 c-1.492,1.427-2.952,2.887-4.379,4.379H64c-17.673,0-32,14.327-32,32V448c-17.673,0-32,14.327-32,32s14.327,32,32,32h448 c17.673,0,32-14.327,32-32S497.673,448,480,448z M256,128c64.801,0,117.333,52.532,117.333,117.333S320.801,362.667,256,362.667 s-117.333-52.532-117.333-117.333S191.199,128,256,128z M53.333,181.333c0-5.891,4.776-10.667,10.667-10.667h75.307 c-41.416,64.418-22.769,150.214,41.65,191.63c64.419,41.416,150.214,22.769,191.63-41.65c29.369-45.68,29.369-104.3,0-149.981 H448c5.891,0,10.667,4.776,10.667,10.667V448H53.333V181.333z M480,490.667H32c-5.891,0-10.667-4.776-10.667-10.667 c0-5.891,4.776-10.667,10.667-10.667h160V480h128v-10.667h160c5.891,0,10.667,4.776,10.667,10.667 C490.667,485.891,485.891,490.667,480,490.667z" data-original="#000000" class="active-path" data-old_color="#000000" fill="#0026FF"></path> <path d="M245.333,341.333h21.333v-32h32c5.891,0,10.667-4.776,10.667-10.667v-53.333c0-5.891-4.776-10.667-10.667-10.667H224v-32 h85.333v-21.333h-42.667v-32h-21.333v32h-32c-5.891,0-10.667,4.776-10.667,10.667v53.333c0,5.891,4.776,10.667,10.667,10.667H288 v32h-85.333v21.333h42.667V341.333z" data-original="#000000" class="active-path" data-old_color="#000000" fill="#0026FF"></path> <rect x="85.333" y="405.333" width="298.667" height="21.333" data-original="#000000" class="active-path" data-old_color="#000000" fill="#0026FF"></rect> <rect x="405.333" y="405.333" width="21.333" height="21.333" data-original="#000000" class="active-path" data-old_color="#000000" fill="#0026FF"></rect> <rect x="362.667" y="21.333" width="21.333" height="106.667" data-original="#000000" class="active-path" data-old_color="#000000" fill="#0026FF"></rect> <rect x="245.333" width="21.333" height="85.333" data-original="#000000" class="active-path" data-old_color="#000000" fill="#0026FF"></rect> <rect x="128" y="21.333" width="21.333" height="106.667" data-original="#000000" class="active-path" data-old_color="#000000" fill="#0026FF"></rect> </g> </g> </g></g> </svg> 